<?xml version="1.0" encoding="utf-8"?>
<!-- Generator: Adobe Illustrator 26.0.3, SVG Export Plug-In . SVG Version: 6.00 Build 0)  -->
<svg version="1.1" id="Layer_1" xmlns="http://www.w3.org/2000/svg" xmlns:xlink="http://www.w3.org/1999/xlink" x="0px" y="0px"
	 viewBox="0 0 201 296.5" style="enable-background:new 0 0 201 296.5;" xml:space="preserve">
<style type="text/css">
	.st0{fill:#E1251B;}
	.st1{fill-rule:evenodd;clip-rule:evenodd;fill:#FFFFFF;}
	.st2{fill:#FFFFFF;}
	.st3{enable-background:new    ;}
</style>
<path id="Shield_00000029042223728433706810000015751287933915137724_" class="st0" d="M0,196.9v-34.6"/>
<path id="Shield_00000067955106383339482530000014930242201064823446_" class="st0" d="M201,153.1v52.4c0,5-3.1,9.4-7.7,11.2
	l-88.4,34.4c-2.8,1.1-5.9,1.1-8.7,0L7.7,216.8C3.1,215,0,210.5,0,205.5v-51.6"/>
<path id="Shield_00000078005944553126337080000016324422814403345335_" class="st0" d="M201,162v34.2"/>
<path id="Shield" class="st0" d="M0,162.4V47.8c0-6.7,5.4-12.1,12.1-12.1c0,0,0,0,0,0h55.8l2.4-0.5c1.4-0.7,1-2.2,0.7-3
	c-0.2-0.7-1.1-3.6-2.6-8.7c0-0.1,0-0.1,0-0.2c0-0.2,0.3-0.4,0.5-0.3l0,0c4.1,0.9,6.5,1.4,7.4,1.6c1.1,0.3,1.4-0.4,1.8-1
	c0.2-0.4,0.8-1.7,1.8-4c0,0,0.1-0.1,0.1-0.1c0.2-0.2,0.4-0.2,0.6,0c0,0,0,0,0,0l0,0l0.3,0.3c4.5,5,6.8,7.7,7,7.9
	c1.4,1,2.8,0,2.5-1.4c0-0.9-1.2-6.6-3.7-17.2c0-0.1,0-0.2,0-0.3c0.1-0.2,0.4-0.3,0.6-0.1l0,0l0.3,0.2c2.2,1.3,3.7,2.1,4.5,2.5
	c1.1,0.7,1.8,0.7,2.5-0.7c0.4-0.7,2.3-4.2,5.6-10.4c0-0.1,0.1-0.1,0.2-0.2c0.2-0.1,0.4,0,0.5,0.2c0,0,0,0,0,0l0,0l0.2,0.4
	c3.2,6,5,9.4,5.4,10.1c0.7,1.4,1.4,1.4,2.5,0.7c0.8-0.4,2.4-1.3,4.8-2.7c0.1,0,0.2,0,0.3,0c0.2,0,0.3,0.2,0.3,0.5c0,0,0,0,0,0l0,0
	l-0.1,0.5c-2.3,10.2-3.5,15.8-3.5,16.6c-0.3,1.4,1.1,2.4,2.5,1.4c0.2-0.2,2.7-3,7.3-8.2c0,0,0.1-0.1,0.1-0.1c0.2-0.1,0.4,0,0.5,0.2
	c0,0,0,0,0,0l0,0l0.1,0.3c0.9,2,1.5,3.3,1.7,3.7c0.3,0.7,0.7,1.4,1.8,1c0.9-0.2,3.4-0.8,7.4-1.6c0.1,0,0.1,0,0.2,0
	c0.2,0.1,0.3,0.3,0.3,0.5l0,0l-0.1,0.4c-1.5,4.9-2.3,7.7-2.5,8.3c-0.3,0.8-0.7,2.3,0.7,3l0,0l2.5,0.4h55.8c6.7,0,12.1,5.4,12.1,12.1
	c0,0,0,0,0,0.1V162"/>
<path id="Chin" class="st1" d="M99,247.4l-88.5-33.7c-3.9-1.5-6.5-5.2-6.5-9.4v-38.8h193v38.8c0,4.2-2.6,7.9-6.5,9.4L102,247.4
	C101,247.7,100,247.7,99,247.4z"/>
<path id="BESTPRICEDDEALER" class="st2" d="M67.6,116.1c2.4,0.2,4.8-0.6,6.7-2.1c1.6-1.5,2.5-3.6,2.4-5.7c0-1.5-0.4-2.9-1.3-4.1
	c-0.9-1.2-2.1-2-3.5-2.3c1.2-0.5,2.2-1.3,3-2.3c0.7-1,1.1-2.2,1.1-3.4c0.1-2.1-0.7-4.1-2.2-5.4c-1.5-1.2-3.7-1.8-6.6-1.8h-8.9v27.2
	L67.6,116.1z M67.2,100.5h-5.4v-8.6h5.3c1.4-0.1,2.8,0.2,4,1c0.9,0.8,1.4,2,1.3,3.3c0,1.2-0.5,2.4-1.4,3.2
	C69.9,100.1,68.6,100.5,67.2,100.5L67.2,100.5z M67.7,113.1h-5.9v-9.8h6c3.6,0,5.3,1.6,5.3,4.9c0.1,1.3-0.5,2.7-1.4,3.6
	C70.5,112.7,69.1,113.2,67.7,113.1L67.7,113.1z M99.2,116.1v-2.9H85.5v-9.6h11.8v-2.9H85.5v-8.7H99v-2.9H82v27.2H99.2z M112.3,116.4
	c2.5,0.1,4.9-0.6,6.9-2c1.7-1.2,2.6-3.2,2.6-5.3c0-1.3-0.3-2.5-0.9-3.6c-0.7-1.1-1.7-2-2.8-2.7c-1.7-0.9-3.4-1.6-5.3-2.1
	c-1.7-0.4-3.4-1.1-4.8-2.1c-0.9-0.7-1.4-1.7-1.4-2.8c0-1.3,0.5-2.5,1.5-3.2c1.2-0.8,2.7-1.3,4.1-1.2c1.6-0.1,3.2,0.4,4.4,1.4
	c1.1,1,1.6,2.4,1.6,3.9h3.6c0-1.5-0.4-2.9-1.2-4.2c-0.8-1.3-2-2.3-3.4-3c-1.6-0.7-3.3-1.1-5-1.1c-2.4-0.1-4.8,0.6-6.7,2.1
	c-1.6,1.3-2.6,3.2-2.6,5.3c0,1.8,0.7,3.6,2.1,4.8c2,1.6,4.3,2.7,6.7,3.2c1.8,0.4,3.5,1.2,5.1,2.2c0.9,0.7,1.5,1.9,1.4,3.1
	c0,1.2-0.5,2.4-1.5,3.2c-1.3,0.8-2.8,1.3-4.3,1.2c-1.7,0.1-3.4-0.4-4.9-1.4c-1.2-0.9-1.9-2.4-1.8-3.9H102c0,1.5,0.4,3,1.3,4.2
	c0.9,1.3,2.2,2.3,3.7,2.9C108.7,116.1,110.5,116.4,112.3,116.4z M136.4,116.1V91.8h8.7v-2.9h-21v2.9h8.7v24.2H136.4z M42.8,154.9
	v-9.6h4.9c3.2,0,5.7-0.8,7.6-2.3c1.8-1.6,2.8-3.9,2.7-6.3c0-1.6-0.4-3.3-1.2-4.7c-0.9-1.4-2.1-2.5-3.6-3.2c-1.7-0.8-3.5-1.2-5.4-1.1
	H37.2v27.2L42.8,154.9z M47.8,140.8h-5v-8.5h5.1c1.2,0,2.4,0.4,3.2,1.3c0.8,0.9,1.2,2,1.2,3.2c0.1,1.1-0.3,2.2-1.2,3
	C50.2,140.6,49,140.9,47.8,140.8L47.8,140.8z M67.4,154.9V145h4.4l5.1,9.9h6v-0.3l-5.9-11.1c1.5-0.6,2.7-1.7,3.6-3
	c0.8-1.4,1.3-3,1.2-4.6c0.1-2.3-0.8-4.6-2.6-6.1c-1.7-1.4-4.2-2.2-7.4-2.2H61.8v27.2L67.4,154.9z M72,140.5h-4.6v-8.1h4.5
	c1.2-0.1,2.4,0.3,3.3,1.1c0.8,0.8,1.1,1.9,1.1,3c0.1,1.1-0.4,2.2-1.2,2.9C74.3,140.1,73.2,140.5,72,140.5z M92.2,154.9v-27.2h-5.6
	v27.1L92.2,154.9z M107.8,155.3c2.8,0.1,5.5-0.8,7.7-2.5c2-1.8,3.1-4.3,3.2-6.9h-5.6c0,1.4-0.5,2.7-1.5,3.7
	c-1.1,0.9-2.5,1.3-3.9,1.2c-1.7,0.1-3.3-0.6-4.2-2c-0.9-1.3-1.3-3.5-1.3-6.4l0,0v-2.1c0-2.8,0.5-4.9,1.4-6.2c1-1.3,2.5-2.1,4.2-2
	c1.4-0.1,2.8,0.3,3.8,1.2c0.9,1,1.5,2.4,1.5,3.8h5.6c-0.1-2.7-1.3-5.2-3.3-7.1c-3.9-3-9.2-3.4-13.5-0.9c-1.7,1.1-3.1,2.7-3.9,4.6
	c-1,2.2-1.4,4.5-1.4,6.9l0,0v1.7c0,4.1,1,7.3,3,9.6C101.6,154.2,104.6,155.4,107.8,155.3L107.8,155.3z M140.6,154.9v-4.5h-12.7v-7.3
	h10.7v-4.4h-10.7v-6.5h12.6v-4.5h-18.2v27.1L140.6,154.9z M152.3,154.9c2.2,0,4.4-0.5,6.4-1.6c1.9-1.1,3.4-2.7,4.4-4.6
	c1.1-2.1,1.6-4.4,1.6-6.7l0,0v-1.2c0-2.3-0.5-4.7-1.6-6.7c-1-1.9-2.5-3.5-4.4-4.6c-2-1.1-4.2-1.7-6.4-1.6h-8.4v27.2L152.3,154.9z
	 M152.2,150.4h-2.7v-18.1h2.8c1.9-0.1,3.8,0.7,5,2.1c1.1,1.4,1.7,3.5,1.7,6.3l0,0v1.4c0.1,2.2-0.5,4.3-1.8,6.1
	C155.9,149.8,154.1,150.6,152.2,150.4L152.2,150.4z"/>
<path id="AWARDWINNER" class="st0" d="M27.3,187.6l1-2.8h4.7l1,2.8h2.2l-4.6-12.2h-1.9l-4.6,12.2H27.3z M32.5,183h-3.5l1.8-5
	L32.5,183z M43.2,187.5l2.4-8.9l2.3,8.9h2l2.8-12.2h-2.1l-1.9,9.2l-2.3-9.2h-1.7l-2.3,9.2l-1.9-9.2h-2.1l2.8,12.2H43.2z M57,187.5
	l1-2.8h4.7l1,2.8h2.2l-4.6-12.2h-1.9l-4.6,12.2H57z M62.1,183h-3.5l1.8-5L62.1,183z M71.3,187.5v-4.7h2.4l2.4,4.7h2.3v-0.1l-2.7-5.1
	c0.7-0.3,1.2-0.7,1.7-1.3c0.4-0.6,0.6-1.3,0.6-2c0.1-1-0.4-2.1-1.2-2.7c-0.9-0.7-2.1-1.1-3.3-1h-4.3v12.2L71.3,187.5z M73.5,181.1
	h-2.2v-4.1h2.2c0.6,0,1.2,0.2,1.7,0.6c0.4,0.4,0.6,1,0.6,1.5c0,0.6-0.2,1.1-0.6,1.5C74.7,181,74.1,181.2,73.5,181.1L73.5,181.1z
	 M85.3,187.5c1,0,2-0.2,2.9-0.7c0.8-0.5,1.5-1.2,2-2c0.5-0.9,0.7-2,0.7-3l0,0v-0.6c0-1-0.2-2.1-0.7-3c-0.4-0.8-1.1-1.5-1.9-2
	c-0.9-0.5-1.9-0.7-2.9-0.7h-3.6v12.2L85.3,187.5z M85.3,185.8h-1.4V177h1.5c1-0.1,1.9,0.3,2.5,1.1c0.6,0.9,0.9,1.9,0.9,3l0,0v0.7
	c0.1,1.1-0.3,2.1-0.9,3C87.2,185.5,86.3,185.8,85.3,185.8L85.3,185.8z M105.1,187.5l2.4-8.9l2.3,8.9h2l2.8-12.2h-2.1l-1.9,9.2
	l-2.3-9.2h-1.8l-2.3,9.2l-1.9-9.2h-2.1l2.8,12.2H105.1z M120.3,187.5v-12.2h-2.1v12.2H120.3z M127,187.5v-8.6l5.4,8.6h2.1v-12.2
	h-2.1v8.7l-5.4-8.7h-2.1v12.2L127,187.5z M141.1,187.5v-8.6l5.4,8.6h2.1v-12.2h-2.1v8.7l-5.5-8.7h-2.1v12.2H141.1z M161,187.5v-1.7
	h-5.9v-3.8h5v-1.7h-5v-3.4h5.8v-1.7h-8v12.2L161,187.5z M166.8,187.5v-4.7h2.4l2.4,4.7h2.3v-0.1l-2.7-5.1c0.7-0.3,1.2-0.7,1.6-1.3
	c1-1.5,0.7-3.5-0.6-4.8c-0.9-0.7-2.1-1.1-3.3-1h-4.3v12.2L166.8,187.5z M168.9,181.1h-2.2v-4.1h2.2c0.6,0,1.2,0.2,1.7,0.6
	c0.4,0.4,0.6,1,0.6,1.5c0,0.6-0.2,1.1-0.6,1.5C170.1,181,169.5,181.2,168.9,181.1L168.9,181.1z"/>
<g class="st3">
	<path class="st0" d="M78.1,221.5H63.8V219l7.1-7.7c1-1.1,1.8-2.1,2.2-2.9s0.7-1.5,0.7-2.3c0-1-0.3-1.8-0.9-2.5s-1.3-0.9-2.3-0.9
		c-1.2,0-2,0.4-2.7,1.1s-1,1.7-1,2.9h-3.6c0-1.3,0.3-2.5,0.9-3.5c0.6-1,1.4-1.8,2.5-2.4s2.4-0.9,3.8-0.9c2.1,0,3.7,0.5,4.9,1.6
		c1.2,1,1.8,2.5,1.8,4.3c0,1.1-0.3,2.2-0.9,3.3c-0.6,1.2-1.6,2.5-3,4l-5.2,5.6h9.9V221.5z"/>
	<path class="st0" d="M97.8,212.5c0,3.1-0.6,5.4-1.7,6.9s-2.9,2.3-5.2,2.3c-2.3,0-4-0.8-5.2-2.3s-1.8-3.8-1.8-6.7V209
		c0-3.1,0.6-5.4,1.7-6.9s2.9-2.3,5.3-2.3c2.3,0,4.1,0.7,5.2,2.2s1.7,3.7,1.8,6.7V212.5z M94.2,208.5c0-2-0.3-3.5-0.8-4.4
		s-1.4-1.4-2.6-1.4c-1.2,0-2,0.4-2.6,1.3c-0.5,0.9-0.8,2.3-0.9,4.1v4.8c0,2,0.3,3.5,0.8,4.5s1.4,1.5,2.6,1.5c1.1,0,2-0.5,2.5-1.4
		c0.5-0.9,0.8-2.3,0.9-4.2V208.5z"/>
	<path class="st0" d="M118.2,221.5h-14.3V219l7.1-7.7c1-1.1,1.8-2.1,2.2-2.9s0.7-1.5,0.7-2.3c0-1-0.3-1.8-0.9-2.5s-1.3-0.9-2.3-0.9
		c-1.2,0-2,0.4-2.7,1.1s-1,1.7-1,2.9h-3.6c0-1.3,0.3-2.5,0.9-3.5c0.6-1,1.4-1.8,2.5-2.4s2.4-0.9,3.8-0.9c2.1,0,3.7,0.5,4.9,1.6
		c1.2,1,1.8,2.5,1.8,4.3c0,1.1-0.3,2.2-0.9,3.3c-0.6,1.2-1.6,2.5-3,4l-5.2,5.6h9.9V221.5z"/>
	<path class="st0" d="M133.6,221.5h-3.5v-17.1l-5.2,1.8v-3l8.3-3.1h0.5V221.5z"/>
</g>
<path class="st2" d="M197,76.2V49.8c0-5.5-4.5-10-10.1-10H14.1c-5.5,0-10,4.5-10,10v26.5c0,0.3,0.2,0.5,0.5,0.6c0,0,0,0,0,0h191.9
	C196.8,76.8,197,76.5,197,76.2C197,76.2,197,76.2,197,76.2z"/>
<path class="st0" d="M151.4,63.2c0.6,0,1.2,0.5,1.2,1.2c0,0.6-0.5,1.2-1.2,1.2c-0.6,0-1.2-0.5-1.2-1.2
	C150.2,63.8,150.7,63.2,151.4,63.2C151.4,63.2,151.4,63.2,151.4,63.2z"/>
<path class="st0" d="M160.3,54.1c1.4,0,2.8,0.5,3.9,1.3l-0.8,1.2c-0.9-0.6-1.9-1-3-1c-2.3-0.2-4.4,1.5-4.6,3.9
	c-0.2,2.3,1.5,4.4,3.9,4.6c0.2,0,0.5,0,0.7,0c1.1,0,2.1-0.4,3-1l0.8,1.1c-1.1,0.8-2.5,1.3-3.9,1.3c-3.4,0-6.2-2-6.2-5.7
	S156.9,54.1,160.3,54.1z"/>
<path class="st0" d="M176.4,65.3h-1.6v-2.2c-0.9,1.6-2.6,2.5-4.4,2.4c-3,0-5.4-2.4-5.5-5.4c0-0.1,0-0.2,0-0.4
	c-0.2-3,2.1-5.6,5.1-5.7c0.1,0,0.2,0,0.4,0c1.8-0.1,3.5,0.9,4.4,2.4v-2.2h1.6V65.3z M170.5,64.1c2.3-0.1,4.2-2.1,4-4.5
	c-0.1-2.2-1.9-3.9-4-4c-2.2,0-4,1.7-4,3.8c0,0.1,0,0.3,0,0.4c-0.1,2.2,1.5,4.1,3.7,4.3C170.3,64.1,170.4,64.1,170.5,64.1z"/>
<path class="st0" d="M98.4,50.1v2.2h-4.6v13H91v-13h-4.5v-2.2H98.4z"/>
<path class="st0" d="M101.1,56.7c0.4-1.9,1.6-2.7,2.8-2.7c0.3,0,0.6,0.1,0.9,0.2v2.6c-0.4-0.1-0.8-0.2-1.3-0.2c-1,0-2.4,0.5-2.4,3.6
	v5.1h-2.7v-11h2.6V56.7z"/>
<path class="st0" d="M117,54.3v11h-2.7v-1.6c-0.8,1.2-2.2,2-3.7,1.9c-3.2,0-5.4-2.6-5.4-5.8s2-5.7,5.4-5.7c1.5,0,2.9,0.7,3.7,1.9
	v-1.6H117z M111.1,63.3c1.7,0.1,3.2-1.3,3.3-3c0-0.1,0-0.2,0-0.4c0.2-1.8-1.2-3.4-3-3.6c-0.1,0-0.2,0-0.3,0c-1.8,0-3.2,1.4-3.2,3.2
	c0,0.1,0,0.2,0,0.3c-0.2,1.8,1.2,3.4,2.9,3.5C110.9,63.3,111,63.3,111.1,63.3L111.1,63.3z"/>
<path class="st0" d="M130.1,50v15.3h-2.7v-1.7c-0.7,1.2-2.1,1.9-3.5,1.9c-3.2,0-5.3-2.6-5.3-5.8s2-5.7,5.4-5.7
	c1.4,0,2.7,0.7,3.5,1.9V50H130.1z M124.5,63.3c1.8,0,3-1.2,3-3.4s-1.1-3.6-3.1-3.6s-3.1,1.6-3.1,3.5c-0.2,1.8,1.2,3.4,2.9,3.5
	C124.3,63.3,124.4,63.3,124.5,63.3z"/>
<path class="st0" d="M142.3,63.4c-1.1,1.4-2.9,2.2-4.7,2.1c-3.2,0.1-5.8-2.4-5.9-5.6c-0.1-3.2,2.4-5.8,5.6-5.9
	c2.8,0,5.4,1.9,5.4,6.1h-8.6c0,1.7,1.3,3.1,3.6,3.1c1.2,0,2.3-0.5,3.1-1.3L142.3,63.4z M134.3,58.4h5.9c-0.3-1.3-1.5-2.3-2.9-2.2
	C136,56.1,134.7,57,134.3,58.4L134.3,58.4z"/>
<path class="st0" d="M147.1,56.7c0.1-1.5,1.3-2.6,2.8-2.7c0.3,0,0.6,0.1,0.9,0.2v2.6c-0.4-0.1-0.8-0.2-1.3-0.2c-1,0-2.4,0.5-2.4,3.6
	v5.1h-2.7v-11h2.6L147.1,56.7z"/>
<path class="st0" d="M37.8,65.3l5.9-15.2h2.9l5.9,15.2h-2.9l-1.2-3h-6.7l-1.1,3H37.8z M45.1,52.9l-2.6,7.2h5.1L45.1,52.9z"/>
<path class="st0" d="M64.2,65.3h-2.7v-1.8c-0.6,1.4-2.1,2.2-3.6,2.1c-2.7,0-4.4-2-4.4-5.2v-6.1h2.7v6.1c0,1.8,1,2.8,2.5,2.8
	c1.2,0,2.8-1,2.8-4.1v-4.8h2.7L64.2,65.3z"/>
<polygon class="st0" points="75.2,54.3 75.2,56.3 71.9,56.3 71.9,65.3 69.2,65.3 69.2,56.3 65.9,56.3 65.9,54.3 69.4,54.3 
	69.4,50.1 71.9,50.1 71.9,54.3 "/>
<path class="st0" d="M81.7,54c3.2,0.1,5.6,2.8,5.5,6s-2.8,5.6-6,5.5c-3.1-0.1-5.5-2.7-5.5-5.7C75.8,56.6,78.4,54,81.7,54z
	 M81.7,63.3c1.9,0.1,3.6-1.3,3.7-3.3c0.1-1.9-1.3-3.6-3.3-3.7c-1.9-0.1-3.6,1.3-3.7,3.3c0,0.1,0,0.1,0,0.2
	C78.3,61.6,79.8,63.2,81.7,63.3C81.6,63.3,81.6,63.3,81.7,63.3z"/>
<path class="st0" d="M34.9,65.3h-6.5c0.2-0.6,0.7-1.7,0.7-1.9c0-0.1,0-0.1-0.1-0.2L24.6,59l1.5-1c0.1-0.1,0.1-0.1,0.1-0.2l-1.2-3
	l3.1,0.7c0.1,0,0.2,0,0.2-0.1l0.7-1.7l2.3,2.7c0.1,0.1,0.2,0.1,0.3,0.1c0.2,0,0.2-0.1,0.1-0.4c0,0,0-0.1,0-0.1l-1.2-6
	c0,0,2.8,1.5,2.9,1.5c0.1,0,0.1,0,0.2-0.1l2-3.6l2,3.6c0,0.1,0.1,0.1,0.2,0.1l2.9-1.5L34.9,65.3z"/>
<polygon class="st0" points="34.1,64.6 34.1,64.6 34.1,64.6 34.1,64.6 "/>
</svg>
