<svg width="22" height="22" viewBox="0 0 22 22" fill="none" xmlns="http://www.w3.org/2000/svg">
<path d="M21.7664 11.2476C21.7664 10.5234 21.7022 9.83591 21.5922 9.16675H11.2339V13.3009H17.1647C16.8989 14.6576 16.1197 15.8034 14.9647 16.5826V19.3326H18.5031C20.5747 17.4167 21.7664 14.5934 21.7664 11.2476Z" fill="#4285F4"/>
<path d="M11.234 22.0002C14.204 22.0002 16.6882 21.0102 18.5032 19.3327L14.9648 16.5827C13.9748 17.2427 12.719 17.646 11.234 17.646C8.36484 17.646 5.93567 15.7119 5.06484 13.0994H1.4165V15.9319C3.22234 19.5252 6.93484 22.0002 11.234 22.0002Z" fill="#34A853"/>
<path d="M5.06472 13.0992C4.83555 12.4392 4.71639 11.7334 4.71639 11C4.71639 10.2667 4.84472 9.56086 5.06472 8.90086V6.06836H1.41639C0.664719 7.55336 0.233887 9.22169 0.233887 11C0.233887 12.7784 0.664719 14.4467 1.41639 15.9317L5.06472 13.0992Z" fill="#FBBC05"/>
<path d="M11.234 4.35417C12.8565 4.35417 14.3048 4.91334 15.4507 6.00417L18.5857 2.86917C16.6882 1.09083 14.204 0 11.234 0C6.93484 0 3.22234 2.475 1.4165 6.06834L5.06484 8.90084C5.93567 6.28834 8.36484 4.35417 11.234 4.35417Z" fill="#EA4335"/>
</svg>
