<?xml version="1.0" encoding="UTF-8" standalone="no"?>
<!DOCTYPE svg PUBLIC "-//W3C//DTD SVG 1.1//EN" "http://www.w3.org/Graphics/SVG/1.1/DTD/svg11.dtd">
<svg xmlns="http://www.w3.org/2000/svg" xmlns:xlink="http://www.w3.org/1999/xlink" version="1.1" width="750pt" height="750pt" viewBox="0 0 750 750">
<g enable-background="new">
<g id="Layer-1" data-name="Layer">
<path transform="matrix(1,0,0,-1,0,750)" d="M 25.5 724.5 L 724.5 724.5 L 724.5 25.5 L 25.5 25.5 Z " fill="#cc2f2c"/>
<clipPath id="cp0">
<path transform="matrix(1,0,0,-1,0,750)" d="M 0 750 L 750 750 L 750 0 L 0 0 Z "/>
</clipPath>
<g clip-path="url(#cp0)">
<path transform="matrix(1,0,0,-1,414.7764,157.02643)" d="M 0 0 L -6.364 -25.457 C -9.547 -35.003 -14.85 -40.307 -22.274 -40.307 L -51.975 -40.307 L -51.975 -6.364 L -51.975 20.153 L -13.789 20.153 L -13.789 32.881 L -50.914 32.881 L -50.914 93.341 L -27.578 93.341 C -21.214 94.402 -14.85 89.099 -13.789 82.734 L -6.364 56.217 C -3.183 56.217 0 56.217 3.182 57.277 L 3.182 100.766 L -94.402 100.766 L -94.402 93.341 L -80.613 93.341 L -80.613 -39.246 L -116.677 -39.246 L -116.677 93.341 L -101.827 93.341 L -101.827 100.766 L -161.226 100.766 L -161.226 93.341 L -146.376 93.341 L -146.376 32.881 L -190.926 32.881 L -190.926 93.341 L -176.076 93.341 L -176.076 100.766 L -357.456 100.766 L -358.516 56.217 C -355.334 56.217 -352.152 55.156 -348.97 55.156 L -341.545 83.795 C -339.423 91.22 -336.242 93.341 -327.756 93.341 L -312.906 93.341 L -312.906 -39.246 L -333.06 -39.246 L -333.06 -47.731 L -261.993 -47.731 L -261.993 -39.246 L -283.207 -39.246 L -283.207 93.341 L -267.296 93.341 C -257.75 93.341 -256.689 91.22 -254.568 83.795 L -247.143 55.156 C -243.961 55.156 -240.779 56.217 -237.597 56.217 L -237.597 93.341 L -221.686 93.341 L -221.686 -39.246 L -238.657 -39.246 L -238.657 -47.731 L -177.137 -47.731 L -177.137 -39.246 L -191.986 -39.246 L -191.986 21.214 L -147.437 21.214 L -147.437 -39.246 L -162.287 -39.246 L -162.287 -47.731 L 7.425 -47.731 L 9.546 -2.122 Z " fill="#ffffff"/>
<path transform="matrix(1,0,0,-1,171.8765,363.8628)" d="M 0 0 L -12.729 -1.061 C -23.335 -4.243 -35.003 -7.425 -46.671 -7.425 C -82.734 -7.425 -111.374 16.971 -111.374 66.824 C -111.374 106.07 -86.978 146.376 -45.61 146.376 C -30.76 147.437 -15.911 144.255 -3.182 137.891 L -3.182 98.645 L -13.789 96.523 C -20.153 121.98 -26.518 136.83 -45.61 136.83 C -71.067 136.83 -79.552 106.07 -79.552 71.067 C -79.552 19.093 -65.763 3.182 -45.61 3.182 C -40.307 3.182 -35.003 4.243 -29.7 6.364 L -29.7 47.731 L -43.489 47.731 L -43.489 56.217 L 0 56.217 L 0 0 " fill="#ffffff"/>
<path transform="matrix(1,0,0,-1,180.3618,360.6807)" d="M 0 0 L 15.911 0 L 15.911 132.587 L 1.061 132.587 L 1.061 141.073 L 62.581 141.073 L 62.581 132.587 L 45.61 132.587 C 45.61 15.911 45.61 1.061 44.549 0 L 65.763 0 C 74.249 0 78.492 4.243 81.674 14.85 L 90.16 40.307 C 93.341 40.307 95.463 40.307 99.706 39.246 L 96.523 -8.485 L 0 -8.485 L 0 0 " fill="#ffffff"/>
<path transform="matrix(1,0,0,-1,281.1284,295.978)" d="M 0 0 C 0 42.428 19.092 78.492 61.521 78.492 C 99.706 78.492 123.041 50.914 123.041 3.182 C 123.041 -39.246 103.948 -75.31 61.521 -75.31 C 25.457 -75.31 0 -49.853 0 0 M 91.22 1.061 C 91.22 60.46 73.188 67.885 61.521 67.885 C 44.549 67.885 31.821 51.974 31.821 2.122 C 31.821 -53.035 47.731 -64.703 61.521 -64.703 C 76.37 -64.703 91.22 -50.914 91.22 1.061 " fill="#ffffff"/>
<path transform="matrix(1,0,0,-1,470.9932,368.1055)" d="M 0 0 L -62.581 0 L -62.581 8.486 L -46.671 8.486 L -46.671 140.012 L -62.581 140.012 L -62.581 148.498 L -1.061 148.498 C 29.699 148.498 46.671 133.648 46.671 110.313 C 44.55 94.402 32.882 81.674 18.032 77.431 L 18.032 76.37 C 36.063 73.188 48.792 57.278 49.853 39.246 C 48.792 15.911 30.761 0 0 0 M -16.971 80.613 L 1.061 80.613 C 11.668 80.613 16.971 93.341 16.971 107.13 C 16.971 130.466 8.485 140.012 -2.121 140.012 L -16.971 140.012 Z M 0 72.127 L -16.971 72.127 L -16.971 12.729 C -16.971 9.546 -16.971 7.425 -14.85 7.425 L 0 7.425 C 10.607 7.425 19.093 12.729 19.093 39.246 C 19.093 57.278 14.85 72.127 0 72.127 " fill="#ffffff"/>
<path transform="matrix(1,0,0,-1,632.2197,322.4956)" d="M 0 0 L -2.122 -45.61 L -109.252 -45.61 L -109.252 -37.124 L -90.16 -37.124 L -90.16 94.402 L -103.949 94.402 L -103.949 102.888 L -6.364 102.888 L -6.364 59.399 C -9.547 59.399 -12.729 59.399 -15.911 58.338 L -23.336 83.795 C -24.396 90.16 -30.761 95.463 -37.125 94.402 L -60.46 94.402 L -60.46 33.942 L -22.275 33.942 L -22.275 21.214 L -60.46 21.214 L -60.46 -5.303 L -60.46 -39.246 L -30.761 -39.246 C -23.336 -39.246 -18.032 -33.942 -14.851 -24.396 L -8.486 1.061 L 0 0 " fill="#ffffff"/>
<path transform="matrix(1,0,0,-1,353.2559,524.0283)" d="M 0 0 C -3.182 0 -5.304 2.122 -5.304 6.364 L -5.304 132.588 C 26.518 132.588 42.428 112.435 42.428 66.824 C 42.428 21.214 29.699 0 0 0 M -259.871 56.217 L -243.961 111.374 L -228.05 56.217 Z M 6.364 141.073 L -94.402 141.073 L -94.402 133.648 C -78.492 133.648 -76.371 129.405 -76.371 120.92 L -76.371 46.671 C -95.463 78.492 -113.495 109.252 -132.587 141.073 L -171.833 141.073 L -171.833 133.648 C -165.469 131.526 -161.226 127.284 -156.983 121.98 L -156.983 14.85 C -156.983 2.122 -163.348 0 -169.712 0 L -181.379 0 L -223.808 141.073 L -245.021 141.073 C -250.325 118.799 -283.207 16.972 -283.207 16.972 C -285.328 7.425 -290.631 0 -300.178 0 L -300.178 -7.425 L -253.507 -7.425 L -253.507 0 L -254.568 0 C -267.296 1.061 -271.539 1.061 -271.539 10.607 C -271.539 13.789 -271.539 18.032 -270.478 21.214 L -263.053 47.731 L -228.05 47.731 L -214.261 0 L -229.111 0 L -229.111 -7.425 L -126.223 -7.425 L -126.223 0 C -144.255 0 -145.316 5.304 -145.316 14.85 L -145.316 106.07 C -123.041 67.885 -100.767 29.7 -77.431 -8.485 L -65.764 -8.485 L -65.764 120.92 C -65.764 130.466 -60.46 132.588 -48.792 133.648 L -33.942 133.648 L -33.942 0 L -49.853 0 L -49.853 -7.425 L 9.546 -7.425 C 53.035 -7.425 77.431 26.518 77.431 68.945 C 79.552 107.131 50.913 138.952 13.789 141.073 Z " fill="#ffffff"/>
<path transform="matrix(1,0,0,-1,252.4893,632.2197)" d="M 0 0 L 15.911 55.157 L 31.821 0 Z M 147.437 77.432 L 147.437 85.917 L 88.038 85.917 L 88.038 77.432 L 101.827 77.432 L 101.827 -55.156 L 79.552 -55.156 L 37.125 85.917 L 15.911 85.917 C 10.607 63.643 -22.274 -38.185 -22.274 -38.185 C -25.457 -46.67 -29.699 -54.095 -37.125 -55.156 L -48.792 -55.156 L -57.277 77.432 L -40.307 77.432 L -40.307 85.917 L -85.917 85.917 L -113.495 6.364 C -123.041 32.882 -132.587 59.399 -141.073 85.917 L -189.865 85.917 L -189.865 77.432 C -175.015 77.432 -173.955 75.31 -173.955 60.46 L -173.955 59.399 C -175.015 32.882 -178.197 -15.91 -180.318 -43.488 C -180.318 -49.853 -185.622 -54.095 -199.411 -55.156 L -199.411 -62.581 L -147.437 -62.581 L -147.437 -55.156 C -166.529 -55.156 -168.651 -48.792 -168.651 -43.488 C -168.651 -41.367 -167.59 -21.214 -167.59 -3.182 C -166.529 22.275 -165.469 39.246 -165.469 65.764 L -165.469 64.703 C -152.74 28.64 -140.012 -7.425 -127.284 -42.428 L -121.98 -40.306 C -110.313 -6.363 -97.584 25.457 -84.856 58.339 L -79.552 -55.156 L -94.402 -55.156 L -94.402 -63.642 L 6.364 -63.642 L 6.364 -55.156 C -6.364 -54.095 -10.607 -54.095 -10.607 -44.549 C -10.607 -41.367 -10.607 -37.124 -9.546 -33.941 L -2.121 -7.425 L 33.942 -7.425 L 47.731 -55.156 L 30.76 -55.156 L 30.76 -63.642 L 147.437 -63.642 L 147.437 -55.156 L 133.648 -55.156 L 133.648 77.432 Z " fill="#ffffff"/>
<path transform="matrix(1,0,0,-1,498.5713,647.0693)" d="M 0 0 L -8.485 -25.456 C -11.668 -36.063 -15.91 -40.307 -24.396 -40.307 L -45.61 -40.307 C -44.549 -39.245 -44.549 -24.396 -44.549 92.281 L -28.639 92.281 L -28.639 100.767 L -91.22 100.767 L -91.22 92.281 L -76.37 92.281 L -76.37 -40.307 L -91.22 -40.307 L -91.22 -48.792 L 5.304 -48.792 L 8.485 -1.061 C 5.304 -1.061 3.183 -1.061 0 0 " fill="#ffffff"/>
<path transform="matrix(1,0,0,-1,535.6953,627.9766)" d="M 0 0 C -1.061 0 -2.121 0 -3.182 -1.061 L -3.182 -2.121 C -3.182 -3.182 -3.182 -4.243 -1.061 -5.304 L 0 -5.304 C 5.304 -5.304 11.668 3.183 15.911 9.546 C 18.032 12.729 18.032 13.789 19.093 13.789 C 20.153 13.789 21.215 13.789 22.275 11.668 C 28.64 3.183 39.246 -1.061 48.793 0 C 48.793 1.061 46.671 2.121 45.61 3.183 C 45.61 3.183 40.307 7.425 47.731 9.546 C 55.156 11.668 58.339 8.485 64.703 13.789 C 64.703 15.91 61.521 15.91 61.521 15.91 C 61.521 15.91 57.278 18.032 70.007 22.274 C 76.371 24.396 76.371 24.396 75.31 25.457 C 74.249 26.518 71.067 27.578 75.31 30.761 C 79.553 33.942 82.735 37.125 82.735 39.246 C 82.735 41.367 79.553 40.307 77.432 39.246 C 74.249 38.186 71.067 39.246 68.945 41.367 C 66.824 44.55 64.703 43.488 62.582 41.367 C 60.46 39.246 55.156 37.125 53.035 41.367 C 50.914 45.61 51.975 44.55 56.218 51.975 C 58.339 56.217 60.46 60.46 60.46 64.703 C 60.46 65.764 60.46 66.824 56.218 64.703 C 51.975 62.581 51.975 78.492 51.975 80.613 C 51.975 80.613 51.975 84.855 49.854 80.613 C 46.671 76.37 42.429 73.188 38.186 70.006 C 36.064 68.945 31.821 71.066 32.882 74.249 C 33.942 77.431 30.761 76.37 29.7 74.249 C 27.578 66.824 24.396 60.46 22.275 53.035 C 21.215 51.975 20.153 49.853 16.972 54.096 C 13.789 58.339 10.607 68.945 6.364 63.642 C 5.304 64.703 -2.121 74.249 -7.425 74.249 C -8.485 73.188 -7.425 71.066 -5.303 70.006 C -4.242 67.885 -4.242 64.703 -5.303 62.581 C -6.363 59.399 -6.363 56.217 -5.303 53.035 C -4.242 50.914 -5.303 48.792 -10.606 47.731 C -15.91 46.671 -14.85 45.61 -12.728 43.488 L -2.121 32.882 C 0 30.761 -2.121 28.639 -5.303 27.578 C -8.485 26.518 -11.667 29.699 -12.728 28.639 C -13.789 27.578 -10.606 27.578 -9.546 26.518 C -8.485 25.457 -3.182 15.91 4.243 16.972 C 11.668 18.032 12.729 16.972 11.668 13.789 C 10.607 10.607 5.304 0 0 0 " fill="#ffffff"/>
</g>
</g>
</g>
</svg>
