<svg xmlns="http://www.w3.org/2000/svg" xmlns:xlink="http://www.w3.org/1999/xlink" version="1.1" id="Layer_1" x="0px" y="0px" style="enable-background:new 0 0 512 512;" xml:space="preserve" viewBox="0 132.56 512.01 246.88">
<style type="text/css">
	.st0{fill:#FFFFFF;}
	.st1{fill:#FF0000;}
	.st2{fill:#003399;}
	.st3{fill:#339933;}
</style>
<g id="XMLID_1_">
	<path id="XMLID_4_" class="st0" d="M281.81,187.83c-3.79,11.22-14.31,19.36-26.65,19.36c-15.57,0-28.2-12.76-28.2-28.48   s11.92-27.77,27.49-27.77c12.76,0,24.13,8.28,27.63,19.92h-7.86c-3.23-7.57-10.94-12.76-19.64-12.76   c-11.5,0-20.34,8.98-20.34,20.48c0,11.5,9.26,20.9,20.76,20.9c8.14,0,15.29-4.77,18.66-11.78L281.81,187.83z"/>
	<path id="XMLID_5_" d="M159.49,376.36v-6.03h2.1c5.19,0,8.84-0.98,10.52-3.09c1.82-2.1,2.67-6.17,2.67-12.48v-85.43   c0-6.59-0.84-10.8-2.52-12.62c-1.68-1.82-5.19-2.81-10.66-2.81h-2.1v-6.03h85.15l2.67,23.99h-7.43l-0.28-2.1   c-0.98-6.73-3.09-10.94-5.89-12.34c-2.95-1.54-11.08-2.24-23.99-2.24H192.6v49.1h18.38c8.56,0,14.03-0.7,16.27-2.1   c2.24-1.4,3.37-4.63,3.37-9.68v-1.96h7.57v33.39h-7.57v-1.68c0-4.49-0.98-7.86-2.81-9.68c-0.98-0.98-4.77-2.24-16.83-2.24H192.6   v45.03c0,5.19,2.1,8.56,6.59,10.66c4.49,2.1,12.62,3.09,24.13,3.09h3.51c4.91,0,8.56-1.26,10.8-3.51   c2.38-2.38,4.07-6.73,5.05-12.91l0.28-1.96h7.43L248,376.21L159.49,376.36L159.49,376.36z"/>
	<path id="XMLID_6_" d="M385.33,376.36h-6.17l-37.03-99.59l-31.56,99.59h-6.31l-32.54-106.19c-1.82-5.89-3.79-10.24-5.75-12.62   c-1.82-2.38-4.21-3.51-6.87-3.51h-1.68V248h41.52v6.03h-2.1c-3.79,0-6.31,0.42-7.57,1.4c-1.12,0.84-1.68,2.67-1.68,5.47   c0,2.67,0.56,5.89,1.54,9.4l23.15,75.75L343.11,248H349l36.19,98.47l22.86-76.17c1.26-4.35,1.82-8,1.82-10.66   c0-3.23-3.09-5.05-9.12-5.61l-1.96-0.14v-6.03h31.98v6.03h-1.82c-2.67,0-4.77,1.12-6.45,3.37c-1.82,2.38-3.65,6.73-5.47,12.91   L385.33,376.36z"/>
	<path id="XMLID_7_" d="M466.41,379.44c-11.36,0-22.3-1.68-32.54-5.05l-0.28-0.14l-1.82-28.9h7.43l0.28,1.68   c1.54,8.42,4.91,15.01,9.96,19.5c5.05,4.49,11.5,6.73,19.36,6.73c7.01,0,13.05-2.38,18.1-7.15c5.05-4.77,7.57-10.52,7.57-17.11   c0-8.42-6.59-17.11-19.5-26.09l-12.48-8.56c-12.06-8.42-20.2-15.01-23.99-19.64c-3.79-4.77-5.75-10.52-5.75-17.11   c0-9.96,4.07-17.96,12.06-23.99c8-6.03,18.66-9.12,31.56-9.12c10.1,0,20.48,1.82,31,5.33l0.28,0.14l2.81,24.83h-7.29l-0.56-1.68   c-4.21-14.87-14.17-22.44-29.32-22.44c-6.73,0-12.48,2.1-16.97,6.17c-4.49,4.07-6.73,9.26-6.73,15.43   c0,7.86,5.61,15.71,16.69,23.29l18.1,12.34c11.22,7.72,18.8,14.03,22.3,18.66c3.51,4.63,5.33,10.52,5.33,17.53   c0,10.8-4.21,19.5-12.34,25.81C491.38,376.21,480.16,379.44,466.41,379.44"/>
	<path id="XMLID_8_" d="M38.01,366.26c-2.24-2.52-3.37-8-3.37-16.13v-99.45l102.4,125.69h4.21l0.14-133.96   c0-8.28,1.12-13.61,3.51-16.13c2.24-2.52,6.87-3.79,14.17-3.79h1.96v-6.17h-51.48v6.17h1.68c7.57,0,12.34,1.26,14.73,3.79   c2.24,2.52,3.51,8,3.51,16.13v95.39L31.56,216.16H0v6.17h1.96c5.19,0,10.94,3.79,17.11,11.36l2.81,3.37v113.06   c0,8.28-1.12,13.61-3.37,16.13c-2.24,2.52-7.15,3.79-14.45,3.79H2.81v6.17h51.76v-6.17H52.6   C45.03,370.04,40.26,368.78,38.01,366.26"/>
	<path id="XMLID_9_" class="st1" d="M255.58,224.02c25.25,0,45.73-20.48,45.73-45.73s-20.48-45.73-45.73-45.73   c-25.25,0-45.73,20.48-45.73,45.73C209.85,203.54,230.33,224.02,255.58,224.02"/>
	<rect id="XMLID_10_" x="304.82" y="135.93" class="st2" width="83.88" height="86.27"/>
	<polygon id="XMLID_11_" class="st3" points="493.06,135.93 390.8,135.93 442,223.18  "/>
	<path id="XMLID_12_" class="st0" d="M282.37,187.55c-3.79,11.36-14.45,19.64-26.93,19.64c-15.71,0-28.34-12.91-28.34-28.62   c0-15.85,12.06-28.05,27.77-28.05c12.91,0,24.27,8.28,27.91,20.06h-7.86c-3.23-7.72-11.08-12.91-19.92-12.91   c-11.5,0-20.48,8.98-20.48,20.62s9.4,21.18,20.9,21.18c8.28,0,15.43-4.91,18.8-11.92L282.37,187.55z"/>
	<polygon id="XMLID_13_" class="st0" points="319.54,161.03 319.54,153.32 374.25,153.32 374.25,161.03 350.97,161.03 350.97,204.8    343.25,204.8 343.25,161.03  "/>
	<polygon id="XMLID_14_" class="st0" points="420.54,151.78 411.42,151.78 441.86,203.4 472.44,151.78 463.32,151.78 441.86,187.55     "/>
</g>
</svg>