<svg xmlns:dc="http://purl.org/dc/elements/1.1/" xmlns:cc="http://creativecommons.org/ns#" xmlns:rdf="http://www.w3.org/1999/02/22-rdf-syntax-ns#" xmlns:svg="http://www.w3.org/2000/svg" xmlns="http://www.w3.org/2000/svg" xmlns:sodipodi="http://sodipodi.sourceforge.net/DTD/sodipodi-0.dtd" xmlns:inkscape="http://www.inkscape.org/namespaces/inkscape" version="1.1" id="svg2" xml:space="preserve" sodipodi:docname="business-insider.eps" viewBox="288 425.4 240 75.76"><metadata id="metadata8"><rdf:RDF><cc:Work rdf:about=""><dc:format>image/svg+xml</dc:format><dc:type rdf:resource="http://purl.org/dc/dcmitype/StillImage"/></cc:Work></rdf:RDF></metadata><defs id="defs6"/><sodipodi:namedview pagecolor="#ffffff" bordercolor="#666666" borderopacity="1" objecttolerance="10" gridtolerance="10" guidetolerance="10" inkscape:pageopacity="0" inkscape:pageshadow="2" inkscape:window-width="640" inkscape:window-height="480" id="namedview4"/><g id="g10" inkscape:groupmode="layer" inkscape:label="ink_ext_XXXXXX" transform="matrix(1.3333333,0,0,-1.3333333,0,1056)"><g id="g12" transform="scale(0.1)"><path d="m 2718.32,4726.29 c 14.66,3.75 30.04,3.86 44.98,1.89 16.66,-2.28 33.01,-7.77 47.15,-16.98 0.02,-13.1 0.02,-26.2 0,-39.29 -8.84,6.68 -18.26,12.73 -28.56,16.91 -13.59,5.68 -28.52,8.05 -43.21,6.98 -7.02,-0.59 -14.13,-2.12 -20.3,-5.64 -4.03,-2.27 -7.56,-5.53 -9.72,-9.65 -2.86,-5.2 -3.19,-11.42 -2.19,-17.17 0.87,-5.09 3.68,-9.75 7.63,-13.06 5.18,-4.4 11.54,-7.04 17.83,-9.44 13.2,-4.8 26.38,-9.63 39.58,-14.41 11.33,-4.21 22.43,-9.67 31.48,-17.81 8.63,-7.62 14.73,-18.01 17.22,-29.26 2.49,-11.57 2.76,-23.81 -0.45,-35.28 -2.89,-10.37 -8.96,-19.78 -17.11,-26.79 -8.68,-7.57 -19.36,-12.56 -30.42,-15.54 -15.11,-4 -30.96,-4.54 -46.45,-2.89 -19.34,2.17 -38.74,7.74 -54.92,18.84 0.04,13.32 -0.01,26.63 0.03,39.95 19.41,-15.66 43.8,-25.58 68.9,-25.88 10.6,-0.16 21.63,0.89 31.19,5.83 5.41,2.81 10.08,7.33 12.3,13.09 2.49,6.29 2.44,13.47 0.36,19.87 -2.09,6.35 -7.22,11.18 -12.86,14.49 -9.85,5.82 -20.88,9.09 -31.53,13.05 -12.94,4.79 -26.29,8.78 -38.32,15.67 -9.14,5.13 -17.51,12.03 -23.15,20.96 -7.62,12 -9.71,26.75 -8.42,40.7 1.3,13.1 7.51,25.65 17.28,34.49 8.87,8.15 20.07,13.43 31.68,16.37" style="fill:#185e7c;fill-opacity:1;fill-rule:evenodd;stroke:none" id="path14"/><path d="m 3604.19,4716.46 c 15.27,9.79 33.8,13.47 51.76,13.04 22.36,-0.19 45.01,-5.94 63.84,-18.23 -0.05,-13.07 0.02,-26.14 -0.04,-39.22 -8.11,6.1 -16.67,11.69 -25.97,15.8 -16.12,7.2 -34.32,10.08 -51.81,7.35 -9.34,-1.6 -19.31,-5.74 -24.02,-14.49 -4.91,-9.54 -3.36,-22.62 4.92,-29.84 6.39,-5.67 14.63,-8.53 22.54,-11.42 12.99,-4.79 26.06,-9.39 39.02,-14.27 11.53,-4.64 22.8,-10.75 31.39,-19.91 7.93,-8.27 12.87,-19.15 14.56,-30.44 1.82,-12.32 1.35,-25.32 -3.56,-36.92 -4.12,-9.91 -11.3,-18.45 -20.11,-24.54 -10.31,-7.26 -22.48,-11.45 -34.83,-13.55 -17.2,-2.83 -34.89,-1.97 -51.91,1.61 -14.13,3.11 -28.04,8.19 -39.97,16.52 0.06,13.31 -0.02,26.62 0.05,39.94 15.2,-12.21 33.28,-21.09 52.58,-24.39 8.35,-1.52 16.9,-1.87 25.37,-1.39 8.61,0.67 17.45,2.41 24.8,7.15 5.7,3.58 9.95,9.5 11.1,16.17 1.42,7.8 0.08,16.55 -5.22,22.71 -4.66,5.46 -11.22,8.72 -17.64,11.63 -10.51,4.48 -21.41,7.94 -32.11,11.92 -10.35,3.67 -20.78,7.42 -30.23,13.09 -8.73,5.14 -16.65,11.97 -21.99,20.64 -5.32,8.58 -7.87,18.62 -8.33,28.63 -0.56,9.09 0.58,18.38 4.08,26.83 4.26,10.57 12.18,19.46 21.73,25.58" style="fill:#185e7c;fill-opacity:1;fill-rule:evenodd;stroke:none" id="path16"/><path d="m 3847.96,4723.89 c 10.63,3.8 21.95,5.66 33.23,5.61 23.04,0.38 46.49,-5.11 66.11,-17.44 0.82,-0.34 1.1,-1.18 1.02,-2.04 -0.01,-12.64 -0.01,-25.29 0,-37.93 -9,6.88 -18.69,12.96 -29.23,17.2 -13.23,5.38 -27.7,7.67 -41.94,6.71 -7.24,-0.55 -14.55,-2.11 -20.9,-5.74 -4.6,-2.6 -8.54,-6.55 -10.54,-11.48 -3.82,-9.56 -1.8,-21.83 6.47,-28.46 8.98,-7.3 20.49,-10.07 31.08,-14.21 12.39,-4.73 25.13,-8.63 37.22,-14.13 11.08,-5.22 21.59,-12.39 28.77,-22.47 7.8,-10.76 10.88,-24.31 10.74,-37.44 0.23,-11.71 -2.86,-23.59 -9.43,-33.36 -6.59,-9.9 -16.41,-17.36 -27.21,-22.15 -11.57,-5.18 -24.22,-7.61 -36.82,-8.25 -14.07,-0.68 -28.25,0.7 -41.94,4.05 -12.59,3.2 -25.01,7.94 -35.69,15.45 -0.41,13.34 -0.06,26.72 -0.17,40.07 19.46,-15.72 43.93,-25.7 69.09,-25.95 10.87,-0.18 22.23,0.94 31.91,6.25 5.02,2.82 9.36,7.12 11.48,12.55 2.5,6.43 2.48,13.77 0.29,20.27 -2.14,6.14 -7.09,10.83 -12.56,14.08 -10.04,5.95 -21.31,9.28 -32.17,13.31 -12.91,4.79 -26.24,8.77 -38.22,15.7 -9.62,5.49 -18.39,12.96 -23.94,22.67 -6.02,10.41 -8.04,22.69 -7.61,34.58 0.41,11.07 3.93,22.09 10.61,30.98 7.52,10.18 18.55,17.29 30.35,21.57" style="fill:#185e7c;fill-opacity:1;fill-rule:evenodd;stroke:none" id="path18"/><path d="m 3065.31,4729.36 c 51.21,-48.81 102.33,-97.71 153.55,-146.5 0.09,47.66 0,95.32 0.05,142.97 12.21,0 24.41,0 36.62,0.01 0.02,-75.97 0.03,-151.94 0,-227.91 -34.49,33.56 -69.04,67.06 -103.53,100.6 -16.7,16.11 -33.21,32.43 -50,48.43 -0.11,-48.45 0.06,-96.91 -0.09,-145.36 -12.2,0.08 -24.39,0.01 -36.58,0.03 -0.04,75.91 0.01,151.82 -0.02,227.73" style="fill:#185e7c;fill-opacity:1;fill-rule:evenodd;stroke:none" id="path20"/><path d="m 2160.02,4725.83 c 19.59,0 39.19,0 58.78,0 13.77,-0.12 27.65,0.62 41.28,-1.75 12.94,-2.19 25.85,-6.81 35.87,-15.51 8.18,-6.99 13.87,-16.69 16.32,-27.14 2.66,-11.73 2.68,-24.3 -1.07,-35.8 -4,-12.36 -13.11,-23.32 -25.35,-28.12 2.03,-1.33 4.38,-1.97 6.5,-3.14 11.16,-5.72 20.03,-15.61 24.83,-27.17 3.74,-8.74 4.84,-18.41 4.02,-27.82 -0.86,-12.14 -4.84,-24.28 -12.61,-33.78 -8.76,-10.88 -21.76,-17.58 -35.16,-20.85 -11.53,-2.91 -23.49,-3.3 -35.33,-3.12 -26.03,0.01 -52.06,0 -78.08,0.01 -0.02,74.73 -0.02,149.46 0,224.19 z m 36.96,-32.98 c 0.05,-20.4 -0.1,-40.79 0.07,-61.17 15.01,0.13 30.04,-0.04 45.04,0.08 9.46,0.46 19.56,2.31 26.88,8.76 5.4,4.72 8.07,11.86 8.51,18.89 0.55,7.72 -0.72,16.11 -5.84,22.21 -4.5,5.47 -11.36,8.36 -18.16,9.75 -7.68,1.58 -15.55,1.47 -23.34,1.48 -11.06,0 -22.1,0.02 -33.16,0 z m 0,-92.79 c 0.01,-21.81 0,-43.62 0,-65.44 15.94,-0.02 31.88,0 47.81,-0.01 9.05,0.1 18.48,1.57 26.18,6.62 6.56,4.2 11.12,11.22 12.47,18.87 1.52,8.36 0.65,17.47 -3.85,24.81 -3.62,5.98 -9.64,10.19 -16.17,12.42 -5.98,2.06 -12.34,2.85 -18.64,2.75 -15.93,-0.03 -31.87,0.01 -47.8,-0.02" style="fill:#185e7c;fill-opacity:1;fill-rule:evenodd;stroke:none" id="path22"/><path d="m 2402.54,4725.83 c 12.66,0 25.31,0 37.96,0 0.02,-38.58 0,-77.16 0.01,-115.74 0.02,-13.59 -0.54,-27.39 2.83,-40.68 2.58,-10.83 8.01,-21.41 17.11,-28.16 8.97,-6.75 20.45,-9.17 31.5,-9.16 11.23,-0.06 22.99,2.32 32.08,9.26 7.63,5.67 12.66,14.18 15.57,23.1 3.42,10.6 4.3,21.85 4.18,32.93 0.01,42.82 -0.01,85.63 0.02,128.45 12.65,0 25.3,0 37.95,0 0.01,-44.58 0.01,-89.16 0.01,-133.74 0.3,-18.37 -2.83,-37.21 -11.7,-53.48 -7.65,-14.25 -20.19,-25.69 -34.95,-32.22 -16.79,-7.49 -35.6,-9.41 -53.78,-7.94 -12.7,1.08 -25.37,4.23 -36.66,10.28 -8.28,4.41 -15.79,10.33 -21.8,17.54 -7.17,8.46 -12.26,18.55 -15.49,29.14 -3.66,12.08 -5,24.78 -4.85,37.38 0.01,44.35 -0.01,88.69 0.01,133.04" style="fill:#185e7c;fill-opacity:1;fill-rule:evenodd;stroke:none" id="path24"/><path d="m 2919.46,4725.87 c 12.63,-0.08 25.27,-0.01 37.91,-0.04 0.08,-74.69 -0.09,-149.4 0.08,-224.1 -12.68,-0.23 -25.36,-0.03 -38.04,-0.1 0.01,74.75 -0.08,149.5 0.05,224.24" style="fill:#185e7c;fill-opacity:1;fill-rule:evenodd;stroke:none" id="path26"/><path d="m 3356.57,4725.89 c 45.16,-0.13 90.33,-0.02 135.5,-0.06 0.01,-11.26 0,-22.53 0,-33.81 -32.76,-0.01 -65.51,0.01 -98.27,0 -0.01,-17.88 -0.01,-35.75 0,-53.63 29.37,-0.02 58.74,0 88.1,0 0.02,-11.11 0.02,-22.21 0,-33.32 -29.36,-0.01 -58.73,0.01 -88.1,-0.01 -0.01,-23.09 -0.01,-46.18 0,-69.28 32.75,-0.01 65.51,-0.01 98.25,0 0.04,-11.39 0.02,-22.76 0.01,-34.15 -45.17,-0.02 -90.33,0.06 -135.51,-0.04 -0.16,60.59 -0.02,121.18 -0.07,181.77 0.06,14.18 -0.11,28.36 0.09,42.53" style="fill:#185e7c;fill-opacity:1;fill-rule:evenodd;stroke:none" id="path28"/><path d="m 2455.55,4388.97 c 50.82,-48.09 101.63,-96.22 152.5,-144.27 0.06,46.89 0.01,93.78 0.04,140.66 12.09,0 24.2,0 36.29,0 0.02,-74.68 0,-149.36 0.02,-224.05 -50.9,48.78 -101.59,97.79 -152.42,146.64 0,-47.71 0,-95.41 -0.01,-143.12 -12.16,0 -24.31,-0.02 -36.46,0.01 0.02,74.71 -0.06,149.42 0.04,224.13" style="fill:#185e7c;fill-opacity:1;fill-rule:evenodd;stroke:none" id="path30"/><path d="m 2773.64,4381 c 14.38,6.58 30.46,8.7 46.16,7.99 20.97,-0.8 42.01,-6.4 59.76,-17.78 0.05,-12.92 0.03,-25.85 0.02,-38.77 -8.89,6.69 -18.38,12.71 -28.73,16.86 -13.67,5.62 -28.67,7.86 -43.38,6.67 -6.99,-0.69 -14.05,-2.3 -20.13,-5.94 -4.56,-2.69 -8.36,-6.83 -10.16,-11.86 -2.88,-8.5 -1.5,-19 5.16,-25.42 5.16,-5.16 12.05,-8.02 18.74,-10.6 13.36,-4.86 26.74,-9.65 40.1,-14.49 10.62,-3.89 20.99,-8.95 29.67,-16.3 8.5,-7.14 14.9,-16.79 17.74,-27.56 2.81,-10.9 3.37,-22.48 1.04,-33.52 -2.24,-10.66 -7.84,-20.57 -15.81,-28 -8.36,-8.03 -19.02,-13.33 -30.08,-16.55 -13.8,-4.07 -28.35,-4.84 -42.65,-3.97 -14.81,1.01 -29.54,4.14 -43.26,9.87 -5.87,2.56 -11.71,5.39 -16.88,9.21 0.13,13.11 0.01,26.23 0.07,39.34 19.36,-15.62 43.77,-25.36 68.78,-25.55 10.68,-0.15 21.83,1 31.35,6.19 5.54,3.03 10.18,8 12.04,14.11 1.85,6.09 1.67,12.84 -0.62,18.78 -2.42,6.22 -7.78,10.72 -13.46,13.9 -9.73,5.42 -20.46,8.65 -30.87,12.46 -11.86,4.4 -24.07,8.06 -35.26,14.06 -10.08,5.31 -19.41,12.64 -25.49,22.4 -6.13,9.82 -8.53,21.58 -8.34,33.05 -0.06,10.87 2.99,21.84 9.18,30.82 6.21,9.15 15.31,16.05 25.31,20.6" style="fill:#185e7c;fill-opacity:1;fill-rule:evenodd;stroke:none" id="path32"/><path d="m 2309.93,4385.36 c 12.65,0 25.3,0 37.96,0 0,-73.51 0,-147.02 0,-220.52 -12.66,-0.02 -25.31,-0.02 -37.96,-0.01 -0.01,73.51 -0.03,147.02 0,220.53" style="fill:#185e7c;fill-opacity:1;fill-rule:evenodd;stroke:none" id="path34"/><path d="m 2988.38,4385.36 c 12.59,0 25.19,0.01 37.79,0 0.01,-73.51 0.01,-147.02 0,-220.52 -12.6,-0.03 -25.2,-0.01 -37.8,-0.01 -0.01,73.51 -0.02,147.02 0.01,220.53" style="fill:#185e7c;fill-opacity:1;fill-rule:evenodd;stroke:none" id="path36"/><path d="m 3136.13,4385.36 c 29.13,0 58.26,0 87.4,0 22.62,-0.31 45.69,-6.22 64.17,-19.64 15.64,-11.14 27.32,-27.4 33.82,-45.39 5.44,-14.92 7.63,-30.88 7.49,-46.72 -0.21,-22.63 -5.43,-45.72 -18.02,-64.77 -10.38,-16.05 -25.96,-28.54 -43.68,-35.63 -13.85,-5.61 -28.82,-8.19 -43.72,-8.39 -29.16,0.02 -58.32,-0.01 -87.47,0.02 -0.01,73.5 -0.01,147.01 0.01,220.52 z m 37.62,-33.16 c 0.01,-51.3 0.01,-102.59 0,-153.89 11.95,-0.02 23.89,0 35.84,-0.01 7.32,0.05 14.68,-0.26 21.98,0.7 13.89,1.62 27.67,6.93 37.91,16.66 9.09,8.48 15.09,19.86 18.25,31.78 3.11,11.77 3.91,24.07 3.11,36.19 -0.74,10.88 -2.97,21.75 -7.53,31.71 -4.35,9.6 -11.08,18.2 -19.7,24.32 -9.91,7.18 -21.98,10.88 -34.06,12.05 -7.3,0.75 -14.64,0.44 -21.95,0.5 -11.28,0 -22.57,0.02 -33.85,-0.01" style="fill:#185e7c;fill-opacity:1;fill-rule:evenodd;stroke:none" id="path38"/><path d="m 3408.3,4385.36 c 44.9,0.02 89.81,-0.02 134.72,0.02 0.06,-11.06 0.01,-22.11 0.02,-33.17 -32.54,0 -65.07,0.01 -97.6,0 0.02,-17.66 -0.06,-35.32 0.04,-52.98 29.13,0.04 58.26,0.02 87.4,0.01 0.04,-10.85 -0.06,-21.71 0.05,-32.56 -29.16,-0.2 -58.33,-0.02 -87.5,-0.09 0,-22.76 0,-45.52 0,-68.29 32.54,0 65.07,0.01 97.61,0 0.01,-11.16 0.01,-22.31 -0.01,-33.47 -44.91,-0.01 -89.83,-0.01 -134.73,0.01 -0.01,73.5 -0.01,147.01 0,220.52" style="fill:#185e7c;fill-opacity:1;fill-rule:evenodd;stroke:none" id="path40"/><path d="m 3655.33,4385.37 c 27.53,-0.01 55.05,0 82.58,-0.01 13.68,-0.27 27.59,-2.48 39.96,-8.54 9.78,-4.67 18.39,-11.99 24.08,-21.27 6.78,-10.91 9.51,-23.97 9.29,-36.71 0.11,-13.04 -2.07,-26.52 -8.79,-37.88 -5.04,-8.54 -12.88,-15.23 -21.86,-19.32 -6.53,-3.06 -13.56,-4.87 -20.66,-6.03 26.55,-30.26 53.16,-60.48 79.7,-90.77 -14.32,-0.04 -28.63,0 -42.94,-0.01 -25.78,29.8 -51.48,59.67 -77.29,89.44 -8.81,0 -17.63,0.01 -26.43,0 -0.06,-29.83 0.08,-59.65 -0.08,-89.48 -12.52,0.07 -25.05,0.01 -37.57,0.04 0,73.51 -0.02,147.02 0.01,220.54 z m 37.64,-32.49 c -0.02,-22.43 -0.02,-44.86 0,-67.29 14.53,0 29.08,0 43.62,0 9.88,0.17 20.26,2.76 27.7,9.59 5.04,4.6 8.17,11.05 9.19,17.76 1.27,8.47 0.11,17.6 -4.63,24.89 -4.44,6.95 -11.95,11.43 -19.84,13.38 -7.96,2.15 -16.26,1.62 -24.4,1.67 -10.55,0 -21.1,0.01 -31.64,0" style="fill:#185e7c;fill-opacity:1;fill-rule:evenodd;stroke:none" id="path42"/></g></g></svg>