<svg xmlns="http://www.w3.org/2000/svg" xmlns:xlink="http://www.w3.org/1999/xlink" version="1.1" id="layer" x="0px" y="0px" style="enable-background:new -153 -46 652 652;" xml:space="preserve" viewBox="-131.7 198.8 600 152.3">
<style type="text/css">
	.st0{fill:#D8232A;}
</style>
<path class="st0" d="M-28.4,275c0,15-12.2,27.2-27.2,27.2S-82.8,290-82.8,275c0-15,12.2-27.2,27.2-27.2S-28.4,260-28.4,275   M-87,302.2c-15,0-27.2-12.2-27.2-27.2c0-15,12.2-27.2,27.2-27.2L-87,302.2 M-24.1,332.2l0-25.8l25.8,0  C1.7,320.7-9.9,332.2-24.1,332.2 M-87,217.7v25.8l-25.9,0C-112.8,229.3-101.2,217.7-87,217.7 M-87,332.2v-25.8l-25.9,0  C-112.8,320.6-101.2,332.2-87,332.2 M7.3,298.3l0-46.7c8,4.7,13.3,13.4,13.3,23.4C20.6,284.9,15.2,293.6,7.3,298.3 M-78.9,212.1  l46.7,0c-4.7-8-13.4-13.3-23.4-13.3C-65.5,198.9-74.2,204.2-78.9,212.1 M-32.5,337.8l-46.8,0c4.7,8,13.4,13.3,23.4,13.3  C-46,351.1-37.3,345.8-32.5,337.8 M-28.4,306.4c0,15-12.2,27.2-27.2,27.2c-15,0-27.2-12.2-27.2-27.2H-28.4 M-24.1,302.2  c15,0,27.2-12.2,27.2-27.2c0-15-12.2-27.2-27.2-27.2V302.2 M-28.4,243.6c0-15-12.2-27.2-27.2-27.2c-15,0-27.2,12.2-27.2,27.2H-28.4   M-118.4,298.3l0-46.7c-8,4.7-13.3,13.4-13.3,23.4C-131.7,284.9-126.3,293.6-118.4,298.3 M1.7,243.6l-25.8,0l0-25.8  C-9.9,217.8,1.7,229.3,1.7,243.6"/>
<path d="M122.6,351c-43.3,0-75.5-33.4-75.5-75.7v-0.4c0-41.8,31.5-76.1,76.7-76.1c27.8,0,44.4,9.3,58,22.7l-20.6,23.8  c-11.4-10.3-22.9-16.6-37.6-16.6c-24.8,0-42.7,20.6-42.7,45.8v0.4c0,25.2,17.5,46.3,42.7,46.3c16.8,0,27.1-6.7,38.7-17.2l20.6,20.8  C167.8,341,151,351,122.6,351 M289.9,304.7c0-10.2-7.6-16.5-24.8-16.5h-38.7v33.5h39.8c14.8,0,23.7-5.2,23.7-16.5V304.7z   M281.4,243.8c0-10-7.8-15.7-22-15.7h-33.1v32.2h30.9c14.8,0,24.1-4.8,24.1-16.1V243.8z M266.2,351h-72.4V198.8h70.7  c31.1,0,50.2,15.4,50.2,39.4v0.4c0,17.2-9.1,26.7-20,32.8c17.6,6.7,28.5,17,28.5,37.4v0.4C323.2,337.1,300.6,351,266.2,351  L266.2,351z M408,351c-43.3,0-75.5-33.4-75.5-75.7v-0.4c0-41.8,31.5-76.1,76.7-76.1c27.8,0,44.4,9.3,58,22.7l-20.6,23.8  c-11.4-10.3-22.9-16.6-37.6-16.6c-24.8,0-42.7,20.6-42.7,45.8v0.4c0,25.2,17.5,46.3,42.7,46.3c16.8,0,27.1-6.7,38.7-17.2l20.6,20.8  C453.2,341,436.4,351,408,351"/>
</svg>